<svg width="27" height="28" viewBox="0 0 27 28" fill="black" xmlns="http://www.w3.org/2000/svg">
<path d="M13.6456 0.145837C6.20474 0.0753078 0.108187 6.09327 0.0372338 13.5788C-0.033719 21.0643 5.94766 27.1968 13.3885 27.2673C20.8294 27.3378 26.9259 21.3198 26.9969 13.8343C27.0678 6.34881 21.0865 0.216367 13.6456 0.145837ZM13.607 4.21405C15.8447 4.23526 17.6338 6.06952 17.6124 8.3206C17.5911 10.5717 15.7676 12.3717 13.5299 12.3505C11.2923 12.3293 9.50319 10.495 9.52453 8.24394C9.54587 5.99286 11.3694 4.19284 13.607 4.21405ZM13.4245 23.4703C10.0546 23.4383 7.09197 21.6743 5.37801 19.0271C5.44403 16.3289 10.8095 14.9015 13.5055 14.927C16.188 14.9525 21.5389 16.4814 21.5538 19.1804C19.79 21.7947 16.7945 23.5022 13.4245 23.4703Z" fill="#D8D8D8"/>
</svg>
